<svg xmlns="http://www.w3.org/2000/svg" version="1.0" width="227.000000pt" height="256.000000pt" viewBox="0 0 227.000000 256.000000" preserveAspectRatio="xMidYMid meet">

<g transform="translate(0.000000,256.000000) scale(0.100000,-0.100000)" fill="#00a787" stroke="none">
<path d="M1393 2539 c-18 -12 -33 -25 -33 -30 0 -12 29 -69 35 -69 12 0 75 35 75 41 0 7 -40 79 -43 79 -1 0 -17 -10 -34 -21z" fill="#00a787"/>
<path d="M821 2464 c-28 -35 -26 -46 8 -72 27 -20 31 -20 45 -6 9 9 21 25 27 36 9 17 7 24 -17 44 -37 29 -38 29 -63 -2z" fill="#00a787"/>
<path d="M1098 2477 c-15 -12 -48 -62 -48 -72 0 -5 76 -55 84 -55 12 0 47 72 42 87 -9 28 -61 54 -78 40z" fill="#00a787"/>
<path d="M1313 2407 c-35 -38 -36 -59 -4 -95 38 -41 54 -40 85 1 32 41 32 48 4 74 -44 40 -63 44 -85 20z" fill="#00a787"/>
<path d="M1613 2410 c-38 -23 -38 -22 -18 -58 30 -56 29 -56 74 -33 47 24 49 33 21 79 -23 37 -33 39 -77 12z" fill="#00a787"/>
<path d="M1205 2336 c-18 -13 -18 -17 -6 -40 17 -31 22 -32 51 -8 20 16 21 21 9 40 -16 26 -28 27 -54 8z" fill="#00a787"/>
<path d="M1900 2305 l0 -45 45 0 45 0 0 45 0 45 -45 0 -45 0 0 -45z" fill="#00a787"/>
<path d="M810 2315 c-18 -47 -12 -73 20 -90 60 -31 90 -14 90 52 0 46 -1 48 -63 58 -33 5 -38 3 -47 -20z" fill="#00a787"/>
<path d="M1027 2293 c-14 -27 -13 -30 19 -59 19 -17 37 -28 40 -23 3 5 13 9 23 9 22 0 51 30 51 53 0 24 -40 47 -82 47 -31 0 -40 -5 -51 -27z" fill="#00a787"/>
<path d="M1500 2290 c-18 -34 6 -87 43 -94 46 -9 56 -7 67 14 16 29 3 58 -33 81 -41 24 -64 24 -77 -1z" fill="#00a787"/>
<path d="M579 2263 c-5 -15 -9 -38 -7 -52 3 -23 9 -27 48 -32 25 -4 47 -5 49 -3 2 2 6 23 8 48 5 42 4 46 -21 56 -45 17 -66 12 -77 -17z" fill="#00a787"/>
<path d="M1800 2261 c-31 -15 -35 -21 -34 -54 2 -52 27 -78 64 -66 15 6 36 19 45 29 15 17 16 24 5 49 -6 16 -19 36 -28 44 -15 13 -21 13 -52 -2z" fill="#00a787"/>
<path d="M1395 2256 c-16 -12 -18 -19 -10 -42 13 -36 35 -41 65 -16 23 19 23 20 7 46 -20 29 -35 32 -62 12z" fill="#00a787"/>
<path d="M1677 2253 c-13 -3 -17 -12 -15 -31 2 -22 9 -28 36 -30 32 -3 33 -2 30 30 -3 33 -15 41 -51 31z" fill="#00a787"/>
<path d="M957 2222 c-25 -27 -21 -50 12 -67 28 -14 31 -14 45 7 22 30 20 44 -6 62 -28 20 -31 20 -51 -2z" fill="#00a787"/>
<path d="M1256 2227 c-18 -13 -18 -15 -1 -40 13 -20 26 -27 49 -27 17 0 42 -3 55 -7 l24 -6 -24 44 c-19 35 -30 45 -54 47 -17 2 -38 -3 -49 -11z" fill="#00a787"/>
<path d="M741 2198 c-12 -19 -11 -24 9 -40 29 -24 35 -23 49 9 11 23 10 29 -5 40 -25 18 -37 16 -53 -9z" fill="#00a787"/>
<path d="M1151 2200 c-10 -6 -10 -12 -1 -30 6 -12 9 -29 5 -37 -3 -9 0 -20 7 -24 16 -10 58 28 58 52 0 28 -46 54 -69 39z" fill="#00a787"/>
<path d="M1081 2171 c-14 -9 -7 -51 8 -51 16 0 31 28 25 44 -7 18 -13 19 -33 7z" fill="#00a787"/>
<path d="M346 2162 c-2 -4 -7 -23 -11 -43 l-7 -36 43 -7 c48 -8 59 1 59 50 0 24 -5 33 -22 38 -31 8 -56 7 -62 -2z" fill="#00a787"/>
<path d="M853 2140 c-41 -25 -42 -41 -2 -59 27 -12 35 -12 53 -1 12 7 35 16 51 20 l30 6 -40 27 c-47 32 -51 33 -92 7z" fill="#00a787"/>
<path d="M1482 2138 c2 -15 10 -23 23 -23 13 0 21 8 23 23 3 18 -1 22 -23 22 -22 0 -26 -4 -23 -22z" fill="#00a787"/>
<path d="M1560 2132 c0 -15 -5 -33 -12 -40 -9 -9 -9 -15 0 -24 9 -9 20 -8 47 5 41 19 42 25 14 61 -27 35 -49 34 -49 -2z" fill="#00a787"/>
<path d="M633 2123 c-27 -14 -33 -22 -33 -50 0 -27 4 -33 21 -33 11 0 29 -5 40 -10 22 -12 43 3 66 47 10 20 9 27 -7 43 -24 24 -44 24 -87 3z" fill="#00a787"/>
<path d="M1664 2125 c-10 -26 9 -69 31 -73 11 -2 30 -13 43 -25 l22 -20 0 45 c0 50 -17 72 -62 83 -21 5 -29 3 -34 -10z" fill="#00a787"/>
<path d="M2044 2127 c-3 -8 -4 -32 -2 -53 3 -43 17 -50 75 -39 34 6 34 7 31 53 l-3 47 -48 3 c-34 2 -49 -1 -53 -11z" fill="#00a787"/>
<path d="M1235 2115 c-19 -15 -19 -15 1 -35 17 -18 22 -18 38 -7 15 11 17 17 7 35 -14 26 -19 26 -46 7z" fill="#00a787"/>
<path d="M1320 2114 c0 -15 26 -19 34 -5 3 5 -3 11 -14 14 -13 3 -20 0 -20 -9z" fill="#00a787"/>
<path d="M1808 2093 c-13 -3 -18 -15 -18 -38 0 -36 13 -46 54 -38 24 5 27 9 24 42 -3 37 -18 46 -60 34z" fill="#00a787"/>
<path d="M1085 2076 c-28 -20 -12 -31 48 -32 29 0 63 -4 77 -9 25 -8 25 -8 7 12 -10 12 -30 23 -45 26 -15 3 -36 8 -47 12 -11 3 -29 0 -40 -9z" fill="#00a787"/>
<path d="M1918 2079 c-10 -5 -18 -22 -18 -36 0 -15 -8 -35 -17 -45 -22 -25 -8 -36 47 -38 66 -3 68 -2 80 21 9 16 6 28 -15 65 -26 44 -44 52 -77 33z" fill="#00a787"/>
<path d="M1447 2073 c-16 -15 -5 -32 23 -38 40 -9 90 -52 90 -76 0 -11 4 -18 9 -14 16 9 -8 62 -46 100 -33 33 -61 43 -76 28z" fill="#00a787"/>
<path d="M773 2063 c-28 -5 -30 -29 -3 -45 11 -7 20 -21 20 -31 0 -32 33 -15 43 23 7 28 5 36 -9 47 -10 7 -20 12 -23 12 -3 -1 -16 -4 -28 -6z" fill="#00a787"/>
<path d="M935 2061 c-3 -5 -1 -12 4 -15 12 -8 41 3 41 15 0 12 -37 12 -45 0z" fill="#00a787"/>
<path d="M1342 2059 c2 -6 8 -10 13 -10 5 0 11 4 13 10 2 6 -4 11 -13 11 -9 0 -15 -5 -13 -11z" fill="#00a787"/>
<path d="M434 2036 c-43 -19 -47 -29 -30 -69 17 -41 54 -54 94 -34 21 10 27 19 25 42 -3 40 -23 75 -42 75 -9 -1 -30 -7 -47 -14z" fill="#00a787"/>
<path d="M1290 2040 c0 -5 5 -10 10 -10 6 0 10 5 10 10 0 6 -4 10 -10 10 -5 0 -10 -4 -10 -10z" fill="#00a787"/>
<path d="M1607 2043 c-11 -3 -16 -10 -13 -20 3 -8 6 -19 6 -24 0 -10 43 -13 53 -3 7 7 -13 55 -22 53 -3 -1 -14 -3 -24 -6z" fill="#00a787"/>
<path d="M866 2014 c-7 -19 10 -44 30 -44 21 0 39 41 23 51 -22 14 -46 10 -53 -7z" fill="#00a787"/>
<path d="M985 2019 c-10 -15 1 -23 20 -15 9 3 13 10 10 16 -8 13 -22 13 -30 -1z" fill="#00a787"/>
<path d="M1378 2018 c-31 -11 -35 -20 -13 -38 16 -13 30 -7 45 20 13 24 2 30 -32 18z" fill="#00a787"/>
<path d="M1681 1997 c-6 -15 -23 -32 -37 -38 -19 -7 -24 -13 -17 -20 8 -8 17 -8 31 0 11 6 34 11 51 11 37 0 39 10 7 47 l-24 28 -11 -28z" fill="#00a787"/>
<path d="M576 2003 c-3 -3 -6 -22 -6 -40 0 -33 1 -34 38 -31 34 3 37 6 40 36 2 21 -1 32 -10 33 -7 0 -22 2 -34 4 -12 3 -24 2 -28 -2z" fill="#00a787"/>
<path d="M705 1989 c-7 -19 7 -38 26 -39 14 0 19 33 8 46 -16 20 -27 17 -34 -7z" fill="#00a787"/>
<path d="M1038 1986 c-19 -26 -15 -36 14 -36 11 0 18 7 18 20 0 11 0 23 1 27 1 17 -17 11 -33 -11z" fill="#00a787"/>
<path d="M1114 1989 c-10 -17 13 -36 27 -22 12 12 4 33 -11 33 -5 0 -12 -5 -16 -11z" fill="#00a787"/>
<path d="M950 1976 c0 -9 5 -16 10 -16 6 0 10 4 10 9 0 6 -4 13 -10 16 -5 3 -10 -1 -10 -9z" fill="#00a787"/>
<path d="M1235 1980 c3 -5 8 -10 11 -10 2 0 4 5 4 10 0 6 -5 10 -11 10 -5 0 -7 -4 -4 -10z" fill="#00a787"/>
<path d="M1440 1970 c0 -15 5 -20 18 -18 9 2 17 10 17 18 0 8 -8 16 -17 18 -13 2 -18 -3 -18 -18z" fill="#00a787"/>
<path d="M1161 1940 c-26 -22 -22 -50 6 -50 14 0 18 8 19 35 0 19 0 35 0 35 -1 -1 -12 -10 -25 -20z" fill="#00a787"/>
<path d="M802 1943 c-34 -4 -69 -43 -57 -63 10 -16 22 -12 49 15 19 18 36 25 66 25 22 0 40 4 40 9 0 9 -37 22 -55 19 -5 -1 -25 -3 -43 -5z" fill="#00a787"/>
<path d="M1217 1933 c-3 -5 -2 -15 2 -22 10 -16 54 -5 48 12 -4 14 -43 22 -50 10z" fill="#00a787"/>
<path d="M1320 1920 c0 -5 5 -10 10 -10 6 0 10 5 10 10 0 6 -4 10 -10 10 -5 0 -10 -4 -10 -10z" fill="#00a787"/>
<path d="M1463 1918 c-38 -12 -40 -19 -15 -40 16 -15 18 -13 33 18 9 19 16 34 15 33 0 -1 -16 -6 -33 -11z" fill="#00a787"/>
<path d="M1865 1919 c-4 -6 -4 -26 0 -45 6 -34 7 -35 48 -32 45 3 54 17 43 64 -5 20 -12 24 -46 24 -21 0 -42 -5 -45 -11z" fill="#00a787"/>
<path d="M2149 1923 c-21 -3 -28 -11 -33 -37 -4 -19 -2 -45 4 -60 8 -23 15 -26 54 -26 55 0 70 17 63 71 -3 22 -7 42 -9 43 -8 7 -55 12 -79 9z" fill="#00a787"/>
<path d="M1673 1914 c-33 -14 -2 -69 34 -62 27 5 25 62 -2 65 -11 1 -26 -1 -32 -3z" fill="#00a787"/>
<path d="M1766 1901 c-3 -4 10 -24 29 -44 29 -29 35 -44 35 -77 0 -47 19 -51 34 -7 7 20 6 31 -6 44 -9 10 -19 35 -23 56 -6 32 -11 37 -36 37 -15 0 -30 -4 -33 -9z" fill="#00a787"/>
<path d="M242 1890 c-32 -13 -37 -36 -18 -77 15 -32 19 -34 49 -28 52 11 63 27 48 75 -13 43 -30 49 -79 30z" fill="#00a787"/>
<path d="M390 1874 c-13 -33 -6 -44 30 -44 22 0 29 6 34 25 8 33 1 45 -30 45 -17 0 -27 -8 -34 -26z" fill="#00a787"/>
<path d="M527 1883 c-8 -10 -19 -30 -22 -45 -7 -27 -6 -28 31 -28 33 0 44 6 71 39 32 38 32 39 10 45 -40 11 -74 6 -90 -11z" fill="#00a787"/>
<path d="M1516 1887 c-14 -11 -15 -15 -3 -31 16 -22 37 -14 37 14 0 25 -13 32 -34 17z" fill="#00a787"/>
<path d="M1030 1880 c0 -5 5 -10 10 -10 6 0 10 5 10 10 0 6 -4 10 -10 10 -5 0 -10 -4 -10 -10z" fill="#00a787"/>
<path d="M1300 1854 c-11 -12 -10 -18 4 -32 16 -16 18 -16 31 1 26 36 -8 65 -35 31z" fill="#00a787"/>
<path d="M1986 1846 c-4 -17 -15 -26 -38 -31 -55 -12 -56 -20 -3 -25 45 -4 52 -8 65 -37 17 -38 39 -39 57 -4 9 20 9 32 -3 60 -25 60 -67 80 -78 37z" fill="#00a787"/>
<path d="M817 1853 c-11 -11 -8 -21 10 -27 17 -7 36 12 27 26 -6 10 -28 10 -37 1z" fill="#00a787"/>
<path d="M883 1829 c-17 -47 -17 -49 12 -49 26 0 32 9 16 26 -5 5 -11 20 -13 33 -3 22 -4 21 -15 -10z" fill="#00a787"/>
<path d="M940 1845 c-15 -18 -13 -22 15 -27 14 -2 21 3 23 20 4 26 -19 30 -38 7z" fill="#00a787"/>
<path d="M1120 1845 c0 -9 5 -15 11 -13 6 2 11 8 11 13 0 5 -5 11 -11 13 -6 2 -11 -4 -11 -13z" fill="#00a787"/>
<path d="M1380 1845 c0 -8 7 -15 15 -15 8 0 15 7 15 15 0 8 -7 15 -15 15 -8 0 -15 -7 -15 -15z" fill="#00a787"/>
<path d="M635 1837 c-14 -11 -15 -16 -5 -22 11 -7 29 9 30 28 0 10 -3 9 -25 -6z" fill="#00a787"/>
<path d="M751 1814 c-16 -36 -3 -54 27 -35 9 5 11 17 6 34 -8 34 -18 34 -33 1z" fill="#00a787"/>
<path d="M1250 1828 c0 -9 7 -22 17 -29 15 -13 15 -12 3 11 -17 34 -20 36 -20 18z" fill="#00a787"/>
<path d="M1740 1830 c-13 -8 -12 -10 3 -10 9 0 26 -9 37 -20 14 -14 20 -16 20 -7 0 13 -30 47 -41 47 -2 0 -11 -5 -19 -10z" fill="#00a787"/>
<path d="M685 1819 c-10 -15 1 -23 20 -15 9 3 13 10 10 16 -8 13 -22 13 -30 -1z" fill="#00a787"/>
<path d="M1044 1815 c-8 -19 3 -35 26 -35 22 0 33 23 17 39 -15 15 -37 14 -43 -4z" fill="#00a787"/>
<path d="M1608 1810 c6 -8 12 -24 12 -37 0 -27 15 -31 24 -7 4 9 5 17 4 18 -2 1 -14 10 -28 21 -14 11 -19 13 -12 5z" fill="#00a787"/>
<path d="M1685 1810 c-8 -13 5 -13 25 0 13 8 13 10 -2 10 -9 0 -20 -4 -23 -10z" fill="#00a787"/>
<path d="M1184 1789 c-3 -6 -2 -15 4 -21 13 -13 32 -2 32 18 0 16 -26 19 -36 3z" fill="#00a787"/>
<path d="M339 1759 c-31 -34 -35 -55 -16 -80 10 -13 22 -15 52 -10 22 3 40 12 40 18 0 6 3 15 8 19 15 15 7 63 -12 74 -30 16 -41 13 -72 -21z" fill="#00a787"/>
<path d="M594 1776 c-24 -18 -11 -46 21 -46 20 0 25 5 25 24 0 29 -22 39 -46 22z" fill="#00a787"/>
<path d="M1000 1777 c0 -15 27 -43 34 -36 3 2 -4 15 -15 28 -13 16 -19 18 -19 8z" fill="#00a787"/>
<path d="M1547 1783 c-9 -9 -8 -25 2 -42 7 -10 13 -11 30 -2 17 10 19 15 11 31 -11 20 -31 26 -43 13z" fill="#00a787"/>
<path d="M1713 1778 c-27 -13 -30 -40 -8 -62 34 -34 85 22 55 60 -14 16 -17 16 -47 2z" fill="#00a787"/>
<path d="M500 1769 c-23 -9 -40 -26 -40 -41 0 -3 13 -9 29 -13 16 -3 32 -13 35 -20 3 -8 12 -12 21 -9 18 7 19 53 1 77 -15 19 -13 19 -46 6z" fill="#00a787"/>
<path d="M1416 1772 c-8 -13 11 -35 23 -28 16 10 14 36 -3 36 -8 0 -17 -4 -20 -8z" fill="#00a787"/>
<path d="M1490 1766 c0 -8 4 -17 9 -20 5 -4 7 3 4 14 -6 23 -13 26 -13 6z" fill="#00a787"/>
<path d="M672 1761 c2 -7 7 -12 11 -12 12 1 9 15 -3 20 -7 2 -11 -2 -8 -8z" fill="#00a787"/>
<path d="M1350 1751 c-7 -15 -6 -23 6 -35 30 -31 51 -13 33 28 -14 31 -25 33 -39 7z" fill="#00a787"/>
<path d="M1137 1753 c-13 -13 -7 -32 14 -44 32 -16 48 4 24 31 -19 21 -28 24 -38 13z" fill="#00a787"/>
<path d="M1896 1744 c-21 -21 -20 -47 3 -75 16 -20 22 -21 52 -13 26 7 35 16 37 36 5 41 -14 68 -48 68 -16 0 -36 -7 -44 -16z" fill="#00a787"/>
<path d="M882 1719 c2 -6 8 -10 13 -10 5 0 11 4 13 10 2 6 -4 11 -13 11 -9 0 -15 -5 -13 -11z" fill="#00a787"/>
<path d="M1234 1715 c-7 -18 3 -35 21 -35 18 0 26 25 12 39 -15 15 -27 14 -33 -4z" fill="#00a787"/>
<path d="M790 1710 c0 -5 5 -10 10 -10 6 0 10 5 10 10 0 6 -4 10 -10 10 -5 0 -10 -4 -10 -10z" fill="#00a787"/>
<path d="M977 1714 c-14 -14 -7 -35 11 -32 9 2 17 10 17 17 0 16 -18 25 -28 15z" fill="#00a787"/>
<path d="M2142 1694 c-17 -12 -22 -25 -22 -58 0 -48 12 -63 56 -71 41 -8 78 14 85 50 6 33 -6 75 -24 87 -20 13 -71 9 -95 -8z" fill="#00a787"/>
<path d="M583 1673 c-52 -27 -76 -64 -54 -86 13 -13 37 6 45 38 3 13 22 33 41 45 19 12 35 24 35 26 0 9 -17 3 -67 -23z" fill="#00a787"/>
<path d="M83 1678 c-36 -12 -38 -19 -22 -67 13 -36 10 -35 60 -19 42 12 42 12 18 76 -9 24 -10 24 -56 10z" fill="#00a787"/>
<path d="M1426 1681 c-11 -18 5 -39 25 -34 13 4 18 11 15 20 -3 8 -6 17 -6 19 0 8 -29 4 -34 -5z" fill="#00a787"/>
<path d="M450 1660 c0 -23 35 -28 43 -6 7 18 -1 26 -25 26 -11 0 -18 -7 -18 -20z" fill="#00a787"/>
<path d="M827 1666 c-7 -19 18 -40 39 -32 8 3 14 14 12 23 -4 22 -43 29 -51 9z" fill="#00a787"/>
<path d="M1557 1668 c-19 -10 -23 -43 -7 -53 20 -12 50 6 50 30 0 27 -19 37 -43 23z" fill="#00a787"/>
<path d="M728 1645 c-13 -28 -6 -40 17 -32 17 7 21 57 5 57 -6 0 -16 -11 -22 -25z" fill="#00a787"/>
<path d="M1050 1650 c0 -13 7 -20 20 -20 13 0 20 7 20 20 0 13 -7 20 -20 20 -13 0 -20 -7 -20 -20z" fill="#00a787"/>
<path d="M1216 1651 c-4 -6 -3 -19 3 -28 9 -17 10 -17 17 0 8 21 -10 45 -20 28z" fill="#00a787"/>
<path d="M944 1634 c3 -9 6 -18 6 -20 0 -11 49 -2 53 10 8 19 -1 26 -36 26 -22 0 -28 -4 -23 -16z" fill="#00a787"/>
<path d="M348 1629 c-21 -12 -23 -38 -5 -62 10 -15 17 -16 45 -6 35 12 37 17 20 54 -12 26 -31 31 -60 14z" fill="#00a787"/>
<path d="M1376 1624 c-4 -9 -4 -19 -1 -22 7 -8 35 19 29 29 -8 14 -21 11 -28 -7z" fill="#00a787"/>
<path d="M1692 1628 c-7 -7 -12 -21 -12 -33 0 -12 5 -26 12 -33 7 -7 21 -12 33 -12 12 0 26 5 33 12 7 7 12 21 12 33 0 12 -5 26 -12 33 -7 7 -21 12 -33 12 -12 0 -26 -5 -33 -12z" fill="#00a787"/>
<path d="M1264 1615 c-4 -9 -2 -21 4 -27 15 -15 44 -1 40 19 -4 23 -36 29 -44 8z" fill="#00a787"/>
<path d="M190 1585 l-34 -35 20 -27 c31 -41 47 -48 79 -32 15 8 34 24 42 36 13 19 11 24 -17 57 -18 20 -37 36 -44 36 -7 0 -27 -16 -46 -35z" fill="#00a787"/>
<path d="M680 1585 c0 -22 5 -35 13 -35 17 0 56 29 40 30 -7 0 -22 9 -33 20 l-20 20 0 -35z" fill="#00a787"/>
<path d="M1800 1596 c0 -39 -11 -57 -44 -72 l-31 -13 27 -1 c16 0 36 9 48 22 21 23 27 72 10 83 -6 3 -10 -5 -10 -19z" fill="#00a787"/>
<path d="M1967 1605 c44 -31 52 -106 15 -147 -14 -17 -13 -18 11 -18 19 0 31 8 42 30 9 17 19 30 24 30 32 0 9 90 -27 109 -12 6 -35 11 -54 11 -32 0 -32 0 -11 -15z" fill="#00a787"/>
<path d="M617 1604 c-14 -15 -6 -34 14 -34 14 0 19 5 17 17 -3 18 -20 27 -31 17z" fill="#00a787"/>
<path d="M825 1593 c22 -15 32 -16 39 -4 3 5 -8 11 -26 13 -28 5 -29 4 -13 -9z" fill="#00a787"/>
<path d="M1062 1584 c1 -9 9 -19 16 -22 9 -3 13 2 10 14 -1 9 -9 19 -16 22 -9 3 -13 -2 -10 -14z" fill="#00a787"/>
<path d="M1120 1581 c0 -24 13 -33 35 -25 23 9 14 38 -13 42 -16 3 -22 -2 -22 -17z" fill="#00a787"/>
<path d="M1413 1579 c-15 -15 -5 -39 17 -39 22 0 32 24 17 39 -6 6 -14 11 -17 11 -3 0 -11 -5 -17 -11z" fill="#00a787"/>
<path d="M1883 1580 c-46 -19 -38 -103 11 -116 56 -14 96 29 76 81 -7 19 -50 49 -63 44 -1 0 -12 -4 -24 -9z" fill="#00a787"/>
<path d="M568 1555 c-2 -3 -3 -18 0 -35 5 -32 22 -39 41 -17 8 11 5 19 -12 35 -13 12 -26 20 -29 17z" fill="#00a787"/>
<path d="M1509 1534 c-17 -21 0 -48 34 -52 18 -2 27 2 32 18 13 41 -38 68 -66 34z" fill="#00a787"/>
<path d="M383 1524 c-49 -21 -70 -77 -39 -103 10 -9 21 -7 45 6 24 14 31 25 31 50 0 17 5 35 10 38 14 9 12 25 -2 24 -7 0 -27 -7 -45 -15z" fill="#00a787"/>
<path d="M813 1528 c2 -7 10 -13 17 -13 7 0 15 6 18 13 2 7 -5 12 -18 12 -13 0 -20 -5 -17 -12z" fill="#00a787"/>
<path d="M905 1530 c-9 -15 4 -30 26 -30 12 0 19 7 19 20 0 21 -33 29 -45 10z" fill="#00a787"/>
<path d="M461 1502 c-14 -26 -7 -42 10 -25 6 6 9 19 7 29 -3 17 -5 17 -17 -4z" fill="#00a787"/>
<path d="M517 1513 c-13 -12 -7 -33 8 -33 8 0 15 9 15 20 0 20 -11 26 -23 13z" fill="#00a787"/>
<path d="M726 1511 c-3 -5 1 -14 9 -21 13 -10 15 -9 15 9 0 21 -14 28 -24 12z" fill="#00a787"/>
<path d="M1004 1495 c-4 -9 -2 -21 3 -26 14 -14 45 1 41 20 -4 22 -37 26 -44 6z" fill="#00a787"/>
<path d="M1630 1460 c-11 -26 -10 -33 5 -50 35 -39 88 -17 88 36 0 30 -17 44 -54 44 -20 0 -30 -7 -39 -30z" fill="#00a787"/>
<path d="M2087 1478 c-41 -32 -39 -115 3 -138 33 -18 79 -11 105 15 51 50 17 135 -54 135 -20 0 -45 -6 -54 -12z" fill="#00a787"/>
<path d="M827 1471 c-17 -6 -17 -8 2 -25 17 -15 23 -16 36 -6 34 29 9 50 -38 31z" fill="#00a787"/>
<path d="M950 1466 c0 -15 18 -31 26 -23 7 7 -7 37 -17 37 -5 0 -9 -6 -9 -14z" fill="#00a787"/>
<path d="M650 1454 c0 -8 5 -12 10 -9 6 3 10 10 10 16 0 5 -4 9 -10 9 -5 0 -10 -7 -10 -16z" fill="#00a787"/>
<path d="M233 1450 c-27 -11 -27 -11 -11 -45 9 -19 16 -24 32 -19 34 10 40 21 28 49 -13 27 -16 28 -49 15z" fill="#00a787"/>
<path d="M526 1451 c-4 -5 -2 -12 3 -15 5 -4 12 -2 15 3 4 5 2 12 -3 15 -5 4 -12 2 -15 -3z" fill="#00a787"/>
<path d="M723 1453 c-15 -5 -17 -39 -4 -47 16 -10 41 5 41 24 0 19 -17 30 -37 23z" fill="#00a787"/>
<path d="M451 1431 c-18 -12 -5 -51 18 -51 27 0 42 20 30 42 -11 20 -26 23 -48 9z" fill="#00a787"/>
<path d="M1803 1398 c-51 -24 -51 -90 1 -123 41 -27 96 8 96 60 0 50 -52 84 -97 63z" fill="#00a787"/>
<path d="M89 1371 c-16 -16 -29 -33 -29 -38 0 -5 13 -22 30 -38 25 -24 33 -27 52 -18 13 6 30 22 37 37 14 24 13 28 -14 56 -16 17 -33 30 -38 30 -5 0 -22 -13 -38 -29z" fill="#00a787"/>
<path d="M372 1374 c-21 -14 -29 -44 -16 -57 3 -3 17 -1 31 6 19 9 26 8 33 -3 7 -11 12 -12 21 -3 9 9 6 19 -10 42 -26 36 -29 36 -59 15z" fill="#00a787"/>
<path d="M627 1383 c-4 -3 -7 -15 -7 -25 0 -19 16 -23 39 -9 12 8 12 12 2 25 -15 17 -24 20 -34 9z" fill="#00a787"/>
<path d="M942 1358 c4 -27 33 -36 42 -13 8 22 -1 35 -25 35 -15 0 -20 -6 -17 -22z" fill="#00a787"/>
<path d="M503 1358 c-6 -7 -21 -32 -34 -56 -18 -33 -21 -47 -13 -60 21 -33 39 -19 44 35 3 29 11 58 18 65 6 6 12 16 12 20 0 12 -16 10 -27 -4z" fill="#00a787"/>
<path d="M728 1363 c6 -2 18 -2 25 0 6 3 1 5 -13 5 -14 0 -19 -2 -12 -5z" fill="#00a787"/>
<path d="M840 1340 c0 -15 5 -20 18 -18 9 2 17 10 17 18 0 8 -8 16 -17 18 -13 2 -18 -3 -18 -18z" fill="#00a787"/>
<path d="M236 1318 c-19 -30 -28 -70 -19 -84 5 -6 17 -16 28 -21 16 -9 25 -6 49 14 30 25 36 49 22 91 -5 16 -15 22 -36 22 -20 0 -34 -8 -44 -22z" fill="#00a787"/>
<path d="M590 1325 c0 -4 9 -20 21 -36 17 -24 24 -27 35 -18 18 15 18 43 0 36 -7 -3 -23 1 -35 9 -11 8 -21 12 -21 9z" fill="#00a787"/>
<path d="M757 1314 c-13 -13 -7 -24 14 -24 11 0 19 5 17 12 -5 14 -22 21 -31 12z" fill="#00a787"/>
<path d="M906 1313 c-12 -12 -5 -23 14 -23 11 0 20 4 20 9 0 11 -26 22 -34 14z" fill="#00a787"/>
<path d="M378 1280 c-10 -6 -14 -18 -11 -30 6 -23 13 -25 36 -7 15 10 16 15 5 29 -9 12 -18 15 -30 8z" fill="#00a787"/>
<path d="M545 1280 c-8 -14 3 -30 21 -30 8 0 14 9 14 20 0 21 -24 28 -35 10z" fill="#00a787"/>
<path d="M795 1260 c-16 -18 -16 -20 -1 -26 24 -9 46 3 46 26 0 26 -22 26 -45 0z" fill="#00a787"/>
<path d="M1980 1268 c-14 -7 -33 -28 -42 -47 -14 -29 -15 -39 -4 -65 15 -38 67 -70 100 -62 39 10 76 55 76 92 0 65 -73 111 -130 82z" fill="#00a787"/>
<path d="M685 1251 c-7 -12 12 -24 25 -16 11 7 4 25 -10 25 -5 0 -11 -4 -15 -9z" fill="#00a787"/>
<path d="M940 1211 c0 -22 29 -36 43 -22 15 15 0 41 -23 41 -13 0 -20 -7 -20 -19z" fill="#00a787"/>
<path d="M520 1213 c1 -18 38 -55 49 -49 19 12 12 36 -15 46 -30 12 -34 12 -34 3z" fill="#00a787"/>
<path d="M299 1184 l-24 -26 29 -25 30 -25 23 27 c19 22 21 30 12 42 -27 31 -45 33 -70 7z" fill="#00a787"/>
<path d="M713 1193 c-18 -7 -16 -40 2 -47 22 -8 49 23 34 40 -12 15 -16 16 -36 7z" fill="#00a787"/>
<path d="M635 1160 c3 -5 10 -10 16 -10 5 0 9 5 9 10 0 6 -7 10 -16 10 -8 0 -12 -4 -9 -10z" fill="#00a787"/>
<path d="M856 1155 c-6 -18 29 -41 39 -25 10 16 -2 40 -19 40 -7 0 -16 -7 -20 -15z" fill="#00a787"/>
<path d="M497 1154 c-8 -8 1 -24 14 -24 5 0 9 7 9 15 0 15 -12 20 -23 9z" fill="#00a787"/>
<path d="M761 1126 c-22 -24 -22 -24 -3 -19 11 3 23 12 27 20 9 25 0 25 -24 -1z" fill="#00a787"/>
<path d="M930 1135 c0 -19 11 -19 36 0 18 14 18 14 -8 15 -18 0 -28 -5 -28 -15z" fill="#00a787"/>
<path d="M375 1104 c-22 -29 -26 -42 -20 -70 8 -47 32 -55 61 -21 21 25 22 28 8 57 -9 16 -13 39 -9 50 10 31 -10 24 -40 -16z" fill="#00a787"/>
<path d="M35 1100 l-29 -30 24 -25 c30 -32 43 -31 75 1 l26 26 -27 29 c-15 16 -31 29 -34 29 -3 0 -19 -13 -35 -30z" fill="#00a787"/>
<path d="M450 1111 c0 -12 5 -21 10 -21 6 0 10 6 10 14 0 8 -4 18 -10 21 -5 3 -10 -3 -10 -14z" fill="#00a787"/>
<path d="M182 1103 c-5 -10 -12 -32 -15 -50 -5 -26 -2 -35 16 -48 12 -8 31 -15 42 -15 26 0 60 36 69 71 5 24 2 29 -34 43 -52 20 -67 20 -78 -1z" fill="#00a787"/>
<path d="M530 1100 c0 -5 7 -10 15 -10 8 0 15 5 15 10 0 6 -7 10 -15 10 -8 0 -15 -4 -15 -10z" fill="#00a787"/>
<path d="M655 1090 c-3 -5 -1 -19 6 -31 10 -19 12 -20 27 -6 13 13 13 19 2 31 -14 18 -26 20 -35 6z" fill="#00a787"/>
<path d="M803 1084 c-7 -19 2 -28 22 -21 19 8 19 23 0 31 -9 3 -18 -1 -22 -10z" fill="#00a787"/>
<path d="M1010 1081 c0 -27 19 -36 37 -18 18 18 9 37 -18 37 -12 0 -19 -7 -19 -19z" fill="#00a787"/>
<path d="M872 1078 c-5 -7 -13 -23 -16 -35 -6 -18 -3 -23 12 -23 30 0 46 24 32 49 -13 25 -14 25 -28 9z" fill="#00a787"/>
<path d="M482 1058 c-18 -18 -15 -36 7 -48 16 -8 23 -6 35 12 14 19 14 23 -2 34 -21 17 -25 17 -40 2z" fill="#00a787"/>
<path d="M1421 1031 c-19 -12 -6 -41 19 -41 16 0 21 5 18 22 -3 25 -17 32 -37 19z" fill="#00a787"/>
<path d="M556 1008 c-14 -71 -13 -107 3 -122 39 -35 52 -12 25 43 -9 18 -14 47 -12 67 4 38 -9 47 -16 12z" fill="#00a787"/>
<path d="M706 1022 c-5 -9 -17 -11 -32 -8 -34 9 -30 -7 7 -23 35 -15 42 -12 37 21 -2 17 -5 19 -12 10z" fill="#00a787"/>
<path d="M1048 1022 c-19 -4 -24 -17 -9 -26 5 -3 14 1 21 9 15 18 12 23 -12 17z" fill="#00a787"/>
<path d="M1130 1005 c-15 -17 -5 -35 20 -35 22 0 33 23 17 39 -15 15 -22 14 -37 -4z" fill="#00a787"/>
<path d="M770 990 c0 -13 5 -20 13 -17 6 2 12 10 12 17 0 7 -6 15 -12 18 -8 2 -13 -5 -13 -18z" fill="#00a787"/>
<path d="M964 995 c-3 -8 -3 -19 1 -25 10 -16 45 7 39 25 -8 19 -33 19 -40 0z" fill="#00a787"/>
<path d="M276 968 c-14 -20 -14 -24 1 -40 21 -24 35 -23 51 3 11 18 11 24 -4 40 -22 24 -29 24 -48 -3z" fill="#00a787"/>
<path d="M426 974 c-9 -25 -7 -62 5 -69 5 -4 18 0 28 9 10 9 27 16 39 16 32 0 27 27 -8 45 -37 19 -56 19 -64 -1z" fill="#00a787"/>
<path d="M1274 975 c-4 -9 -2 -21 4 -27 15 -15 44 -1 40 19 -4 23 -36 29 -44 8z" fill="#00a787"/>
<path d="M632 953 c4 -21 33 -25 33 -3 0 8 -8 16 -18 18 -14 3 -18 -1 -15 -15z" fill="#00a787"/>
<path d="M814 955 c-7 -17 2 -45 14 -45 4 0 17 6 27 14 16 12 17 16 6 30 -17 20 -40 21 -47 1z" fill="#00a787"/>
<path d="M1347 951 c-3 -12 1 -22 9 -25 10 -4 14 2 14 19 0 30 -16 33 -23 6z" fill="#00a787"/>
<path d="M1500 950 c0 -13 7 -20 20 -20 13 0 20 7 20 20 0 13 -7 20 -20 20 -13 0 -20 -7 -20 -20z" fill="#00a787"/>
<path d="M1185 950 c-8 -13 4 -32 16 -25 12 8 12 35 0 35 -6 0 -13 -4 -16 -10z" fill="#00a787"/>
<path d="M888 921 c-5 -32 5 -42 16 -15 3 9 2 23 -3 31 -6 12 -9 8 -13 -16z" fill="#00a787"/>
<path d="M1010 900 c0 -25 4 -31 18 -28 11 2 17 12 17 28 0 16 -6 26 -17 28 -14 3 -18 -3 -18 -28z" fill="#00a787"/>
<path d="M1590 910 c0 -23 25 -27 33 -6 7 16 -1 26 -20 26 -7 0 -13 -9 -13 -20z" fill="#00a787"/>
<path d="M1782 919 c2 -6 8 -10 13 -10 5 0 11 4 13 10 2 6 -4 11 -13 11 -9 0 -15 -5 -13 -11z" fill="#00a787"/>
<path d="M1685 910 c-7 -12 2 -30 16 -30 5 0 9 9 9 20 0 21 -15 27 -25 10z" fill="#00a787"/>
<path d="M760 896 c0 -9 5 -16 10 -16 6 0 10 4 10 9 0 6 -4 13 -10 16 -5 3 -10 -1 -10 -9z" fill="#00a787"/>
<path d="M940 897 c0 -19 10 -27 26 -20 21 8 17 33 -6 33 -11 0 -20 -6 -20 -13z" fill="#00a787"/>
<path d="M1127 896 c-7 -18 1 -26 25 -26 13 0 18 6 16 17 -4 22 -34 29 -41 9z" fill="#00a787"/>
<path d="M348 889 c-12 -7 -18 -22 -18 -47 0 -81 67 -113 95 -46 16 38 9 66 -24 91 -19 15 -31 15 -53 2z" fill="#00a787"/>
<path d="M653 893 c-20 -8 -15 -19 12 -31 35 -16 37 -15 33 10 -3 23 -22 31 -45 21z" fill="#00a787"/>
<path d="M1323 884 c-8 -21 13 -42 28 -27 13 13 5 43 -11 43 -6 0 -13 -7 -17 -16z" fill="#00a787"/>
<path d="M473 874 c-5 -14 11 -33 28 -34 10 0 20 31 13 41 -9 15 -34 10 -41 -7z" fill="#00a787"/>
<path d="M185 850 c-22 -42 -19 -69 8 -79 65 -25 67 -24 82 13 25 60 23 65 -48 86 -24 8 -29 5 -42 -20z" fill="#00a787"/>
<path d="M1407 873 c-12 -11 -8 -20 11 -27 9 -3 23 -9 30 -12 8 -4 12 3 12 20 0 21 -5 26 -23 26 -13 0 -27 -3 -30 -7z" fill="#00a787"/>
<path d="M1200 848 c0 -7 9 -24 20 -38 16 -22 20 -23 25 -8 4 9 5 25 3 35 -4 21 -48 31 -48 11z" fill="#00a787"/>
<path d="M814 839 c-10 -16 23 -46 36 -33 6 6 8 18 4 27 -7 19 -29 22 -40 6z" fill="#00a787"/>
<path d="M1894 836 c-8 -22 3 -33 18 -18 9 9 9 15 0 24 -9 9 -13 7 -18 -6z" fill="#00a787"/>
<path d="M640 815 c0 -8 7 -15 15 -15 8 0 15 7 15 15 0 8 -7 15 -15 15 -8 0 -15 -7 -15 -15z" fill="#00a787"/>
<path d="M1514 819 c-10 -17 7 -49 26 -49 18 0 34 25 25 40 -8 12 -44 19 -51 9z" fill="#00a787"/>
<path d="M950 805 c0 -8 7 -15 15 -15 8 0 15 7 15 15 0 8 -7 15 -15 15 -8 0 -15 -7 -15 -15z" fill="#00a787"/>
<path d="M1157 814 c-14 -15 -6 -34 14 -34 14 0 19 5 17 17 -3 18 -20 27 -31 17z" fill="#00a787"/>
<path d="M1384 809 c-8 -14 18 -31 30 -19 9 9 0 30 -14 30 -5 0 -12 -5 -16 -11z" fill="#00a787"/>
<path d="M884 796 c-3 -8 -16 -19 -27 -23 -20 -6 -20 -7 8 -13 37 -8 45 -4 45 20 0 24 -18 36 -26 16z" fill="#00a787"/>
<path d="M1015 789 c-9 -27 4 -40 33 -33 24 7 28 24 10 42 -18 18 -36 14 -43 -9z" fill="#00a787"/>
<path d="M1095 780 c0 -15 3 -26 8 -23 4 2 7 13 7 23 0 10 -3 21 -7 23 -5 3 -8 -8 -8 -23z" fill="#00a787"/>
<path d="M456 791 c-8 -13 -10 -57 -3 -68 5 -7 21 -13 37 -13 23 0 30 5 35 30 4 16 4 34 1 39 -7 10 -65 20 -70 12z" fill="#00a787"/>
<path d="M695 790 c-3 -5 1 -10 9 -10 9 0 16 5 16 10 0 6 -4 10 -9 10 -6 0 -13 -4 -16 -10z" fill="#00a787"/>
<path d="M1630 775 c0 -30 25 -34 39 -6 8 15 7 20 -5 25 -27 10 -34 7 -34 -19z" fill="#00a787"/>
<path d="M1752 783 c5 -26 38 -29 38 -4 0 15 -6 21 -21 21 -14 0 -19 -5 -17 -17z" fill="#00a787"/>
<path d="M610 772 c0 -5 7 -16 16 -23 14 -12 16 -11 13 5 -4 20 -29 35 -29 18z" fill="#00a787"/>
<path d="M1342 754 c7 -15 14 -21 16 -15 5 16 -5 41 -17 41 -7 0 -6 -10 1 -26z" fill="#00a787"/>
<path d="M552 728 c-10 -51 1 -81 35 -97 30 -14 39 -9 45 24 4 18 -3 36 -23 62 -16 20 -29 40 -29 44 0 5 -4 9 -9 9 -6 0 -14 -19 -19 -42z" fill="#00a787"/>
<path d="M1467 764 c-8 -8 1 -24 14 -24 5 0 9 7 9 15 0 15 -12 20 -23 9z" fill="#00a787"/>
<path d="M1270 744 c-11 -12 -11 -18 2 -30 16 -16 48 -9 48 10 0 13 -20 36 -31 36 -4 0 -12 -7 -19 -16z" fill="#00a787"/>
<path d="M670 721 c0 -27 4 -31 26 -31 22 0 25 4 22 28 -2 19 -9 28 -25 30 -20 3 -23 -1 -23 -27z" fill="#00a787"/>
<path d="M760 731 c-1 -74 52 -145 91 -120 11 7 7 15 -23 41 -21 18 -44 49 -52 68 -13 30 -15 32 -16 11z" fill="#00a787"/>
<path d="M845 721 c-8 -15 3 -31 21 -31 9 0 14 7 12 17 -4 20 -24 28 -33 14z" fill="#00a787"/>
<path d="M1207 724 c-8 -8 1 -24 14 -24 5 0 9 7 9 15 0 15 -12 20 -23 9z" fill="#00a787"/>
<path d="M1565 720 c3 -5 8 -10 11 -10 2 0 4 5 4 10 0 6 -5 10 -11 10 -5 0 -7 -4 -4 -10z" fill="#00a787"/>
<path d="M990 710 c0 -5 5 -10 10 -10 6 0 10 5 10 10 0 6 -4 10 -10 10 -5 0 -10 -4 -10 -10z" fill="#00a787"/>
<path d="M1065 691 c-9 -16 3 -31 26 -31 14 0 19 6 17 17 -4 20 -33 29 -43 14z" fill="#00a787"/>
<path d="M1434 666 c1 -36 14 -38 35 -4 11 17 11 22 -1 29 -25 16 -35 9 -34 -25z" fill="#00a787"/>
<path d="M1147 674 c4 -10 -1 -22 -12 -30 -27 -20 -15 -24 24 -8 33 14 33 15 16 34 -22 24 -37 26 -28 4z" fill="#00a787"/>
<path d="M1875 670 c-8 -25 -7 -27 20 -32 16 -2 20 3 20 22 0 32 -31 39 -40 10z" fill="#00a787"/>
<path d="M899 661 c-13 -11 -22 -21 -19 -21 3 -1 20 -3 38 -6 30 -3 33 -2 30 18 -4 29 -20 32 -49 9z" fill="#00a787"/>
<path d="M1355 670 c-4 -7 -3 -16 3 -22 14 -14 47 -6 47 12 0 18 -40 26 -50 10z" fill="#00a787"/>
<path d="M403 660 c-25 -10 -30 -41 -13 -84 8 -22 16 -26 49 -26 48 0 64 21 59 78 -3 35 -5 37 -38 39 -19 1 -45 -2 -57 -7z" fill="#00a787"/>
<path d="M673 654 c-26 -11 -7 -84 21 -84 8 0 17 11 20 25 4 14 13 25 22 25 9 0 14 7 12 18 -3 17 -49 27 -75 16z" fill="#00a787"/>
<path d="M1280 650 c0 -5 5 -10 10 -10 6 0 10 5 10 10 0 6 -4 10 -10 10 -5 0 -10 -4 -10 -10z" fill="#00a787"/>
<path d="M1556 644 c-9 -23 -7 -54 3 -54 5 0 16 12 26 26 14 22 15 28 4 35 -20 12 -26 11 -33 -7z" fill="#00a787"/>
<path d="M1705 630 c-8 -26 6 -43 31 -38 13 2 19 12 19 28 0 34 -40 41 -50 10z" fill="#00a787"/>
<path d="M1475 620 c-8 -13 3 -30 20 -30 14 0 27 24 18 34 -10 9 -31 7 -38 -4z" fill="#00a787"/>
<path d="M257 594 c-3 -11 -8 -29 -12 -41 -5 -19 0 -25 31 -38 42 -17 50 -13 63 33 11 36 1 49 -46 58 -25 5 -32 2 -36 -12z" fill="#00a787"/>
<path d="M1157 604 c-14 -14 -7 -35 11 -32 9 2 17 10 17 17 0 16 -18 25 -28 15z" fill="#00a787"/>
<path d="M1615 601 c-7 -12 12 -24 25 -16 11 7 4 25 -10 25 -5 0 -11 -4 -15 -9z" fill="#00a787"/>
<path d="M920 585 c0 -9 5 -15 11 -13 6 2 11 8 11 13 0 5 -5 11 -11 13 -6 2 -11 -4 -11 -13z" fill="#00a787"/>
<path d="M980 590 c0 -5 5 -10 10 -10 6 0 10 5 10 10 0 6 -4 10 -10 10 -5 0 -10 -4 -10 -10z" fill="#00a787"/>
<path d="M530 579 c0 -8 -3 -24 -6 -35 -5 -17 0 -22 23 -27 16 -3 31 0 35 6 13 20 9 57 -6 57 -8 0 -21 3 -30 6 -10 4 -16 1 -16 -7z" fill="#00a787"/>
<path d="M747 584 c-4 -4 -7 -16 -7 -26 0 -13 7 -18 26 -18 21 0 25 4 22 22 -3 23 -27 35 -41 22z" fill="#00a787"/>
<path d="M1222 566 c-14 -31 -6 -37 26 -23 37 15 36 15 22 32 -18 22 -35 19 -48 -9z" fill="#00a787"/>
<path d="M636 531 c-21 -23 -20 -39 3 -78 38 -62 101 -52 101 16 0 35 -4 40 -37 56 -21 10 -41 19 -44 21 -4 2 -14 -5 -23 -15z" fill="#00a787"/>
<path d="M985 540 c-12 -20 6 -51 28 -48 31 4 31 52 0 56 -11 2 -24 -2 -28 -8z" fill="#00a787"/>
<path d="M1326 541 c-4 -5 -2 -12 3 -15 5 -4 12 -2 15 3 4 5 2 12 -3 15 -5 4 -12 2 -15 -3z" fill="#00a787"/>
<path d="M924 525 c21 -16 32 -13 21 4 -3 6 -14 11 -23 11 -15 -1 -15 -2 2 -15z" fill="#00a787"/>
<path d="M1273 522 c-8 -5 -9 -13 -3 -22 7 -12 12 -12 22 -2 14 14 -1 35 -19 24z" fill="#00a787"/>
<path d="M1359 504 c-9 -11 -10 -20 -3 -32 15 -23 29 -25 48 -6 16 15 16 18 0 35 -21 23 -28 24 -45 3z" fill="#00a787"/>
<path d="M880 492 c0 -55 13 -81 45 -92 45 -15 66 -5 59 29 -9 34 -23 51 -43 51 -9 0 -27 7 -39 16 -20 14 -22 14 -22 -4z" fill="#00a787"/>
<path d="M788 493 c-24 -6 -25 -71 -2 -80 23 -9 64 14 64 36 0 46 -15 57 -62 44z" fill="#00a787"/>
<path d="M1439 457 c-24 -40 -24 -44 0 -57 20 -10 71 -14 71 -5 0 3 -7 17 -16 30 -13 19 -14 28 -5 39 9 11 7 15 -9 19 -16 4 -26 -2 -41 -26z" fill="#00a787"/>
<path d="M1844 464 c-12 -46 44 -62 64 -19 10 21 9 26 -8 35 -31 17 -49 11 -56 -16z" fill="#00a787"/>
<path d="M1040 462 c-26 -21 -21 -55 11 -72 26 -15 40 -4 33 25 -3 12 -1 26 5 29 18 11 12 36 -8 36 -10 0 -29 -8 -41 -18z" fill="#00a787"/>
<path d="M1537 473 c-10 -9 -9 -41 2 -47 4 -3 16 1 27 8 15 12 16 16 5 30 -15 17 -24 20 -34 9z" fill="#00a787"/>
<path d="M1286 461 c-3 -5 4 -11 16 -14 25 -7 33 -3 23 12 -8 13 -32 14 -39 2z" fill="#00a787"/>
<path d="M1630 440 c-9 -23 -10 -33 -1 -44 21 -25 50 -26 66 -3 22 31 19 45 -15 62 -38 19 -36 20 -50 -15z" fill="#00a787"/>
<path d="M502 437 c-8 -10 -10 -27 -4 -53 8 -38 9 -39 51 -38 56 1 67 14 55 61 -8 35 -12 38 -50 41 -26 2 -45 -2 -52 -11z" fill="#00a787"/>
<path d="M1131 431 c-19 -12 -6 -43 16 -39 10 2 18 12 18 22 0 22 -14 29 -34 17z" fill="#00a787"/>
<path d="M1206 367 l-28 -23 24 -29 c25 -28 26 -29 52 -12 32 21 33 37 3 65 l-23 21 -28 -22z" fill="#00a787"/>
<path d="M820 373 c-30 -11 -59 -45 -52 -62 12 -32 46 -71 63 -71 9 0 28 9 42 20 22 17 25 26 20 53 -10 53 -35 74 -73 60z" fill="#00a787"/>
<path d="M1053 343 c-14 -5 -17 -41 -5 -59 9 -14 67 -44 85 -44 8 0 22 9 33 21 15 16 16 23 6 37 -7 9 -15 25 -18 35 -5 13 -17 17 -48 16 -22 0 -47 -3 -53 -6z" fill="#00a787"/>
<path d="M932 308 c2 -24 8 -34 23 -36 32 -4 49 13 41 42 -5 21 -12 26 -37 26 -28 0 -30 -2 -27 -32z" fill="#00a787"/>
<path d="M1412 298 c-17 -17 -15 -32 7 -52 17 -15 20 -15 42 3 23 19 24 19 5 40 -22 24 -37 26 -54 9z" fill="#00a787"/>
<path d="M1288 273 c-19 -22 -38 -58 -38 -71 0 -12 66 -52 86 -52 12 0 54 54 54 70 0 3 -10 17 -23 31 -30 36 -60 44 -79 22z" fill="#00a787"/>
<path d="M717 242 l-38 -3 3 -42 3 -42 45 0 45 0 -3 40 c-4 49 -7 51 -55 47z" fill="#00a787"/>
<path d="M1785 220 c-8 -16 -15 -33 -15 -38 0 -8 70 -46 75 -40 5 7 35 67 35 72 0 7 -56 36 -69 36 -6 0 -17 -13 -26 -30z" fill="#00a787"/>
<path d="M1509 199 c-23 -46 -21 -51 33 -74 36 -15 38 -14 52 7 8 13 17 34 21 48 5 21 0 28 -26 43 -45 25 -56 22 -80 -24z" fill="#00a787"/>
<path d="M1000 213 c-36 -25 -40 -34 -25 -63 26 -51 41 -55 80 -26 41 31 43 43 14 80 -24 30 -36 32 -69 9z" fill="#00a787"/>
<path d="M1253 109 c-38 -24 -40 -37 -12 -73 25 -32 31 -32 65 -3 l27 24 -22 36 c-12 21 -23 37 -24 37 -1 0 -17 -10 -34 -21z" fill="#00a787"/>
</g>
</svg>